<svg xmlns="http://www.w3.org/2000/svg" width="337" height="124" viewBox="0 0 337 124" fill="none"><path d="M48.0018 2.14404V122H29.8596V20.2863H29.1573L0.480794 39.0138V21.6909L30.3863 2.14404H48.0018ZM108.967 123.99C99.7201 123.951 91.8195 121.512 85.2648 116.674C78.7102 111.836 73.6967 104.794 70.2243 95.5474C66.7519 86.3007 65.0157 75.1618 65.0157 62.1305C65.0157 49.1383 66.7519 38.0384 70.2243 28.8307C73.7357 19.623 78.7687 12.6002 85.3234 7.76229C91.917 2.92435 99.7982 0.505383 108.967 0.505383C118.135 0.505383 125.997 2.94386 132.552 7.82081C139.106 12.6587 144.12 19.6816 147.592 28.8892C151.104 38.0579 152.859 49.1383 152.859 62.1305C152.859 75.2008 151.123 86.3592 147.651 95.6059C144.178 104.814 139.165 111.856 132.61 116.733C126.056 121.571 118.175 123.99 108.967 123.99ZM108.967 108.364C117.082 108.364 123.422 104.404 127.987 96.4838C132.591 88.5636 134.893 77.1125 134.893 62.1305C134.893 52.1816 133.839 43.7737 131.732 36.9069C129.665 30.0012 126.68 24.7731 122.778 21.2227C118.916 17.6332 114.312 15.8385 108.967 15.8385C100.891 15.8385 94.5506 19.8181 89.9467 27.7773C85.3429 35.7365 83.0214 47.1876 82.9824 62.1305C82.9824 72.1185 84.0163 80.5654 86.0842 87.4712C88.191 94.3379 91.1757 99.5465 95.0382 103.097C98.9008 106.608 103.544 108.364 108.967 108.364ZM202.164 123.99C192.917 123.951 185.016 121.512 178.462 116.674C171.907 111.836 166.893 104.794 163.421 95.5474C159.949 86.3007 158.213 75.1618 158.213 62.1305C158.213 49.1383 159.949 38.0384 163.421 28.8307C166.933 19.623 171.966 12.6002 178.52 7.76229C185.114 2.92435 192.995 0.505383 202.164 0.505383C211.332 0.505383 219.194 2.94386 225.749 7.82081C232.303 12.6587 237.317 19.6816 240.789 28.8892C244.3 38.0579 246.056 49.1383 246.056 62.1305C246.056 75.2008 244.32 86.3592 240.848 95.6059C237.375 104.814 232.362 111.856 225.807 116.733C219.252 121.571 211.371 123.99 202.164 123.99ZM202.164 108.364C210.279 108.364 216.619 104.404 221.184 96.4838C225.788 88.5636 228.089 77.1125 228.089 62.1305C228.089 52.1816 227.036 43.7737 224.929 36.9069C222.861 30.0012 219.877 24.7731 215.975 21.2227C212.113 17.6332 207.509 15.8385 202.164 15.8385C194.087 15.8385 187.747 19.8181 183.144 27.7773C178.54 35.7365 176.218 47.1876 176.179 62.1305C176.179 72.1185 177.213 80.5654 179.281 87.4712C181.388 94.3379 184.372 99.5465 188.235 103.097C192.098 106.608 196.74 108.364 202.164 108.364ZM289.098 101.868V22.7443H304.841V101.868H289.098ZM257.437 70.1483V54.464H336.561V70.1483H257.437Z" fill="url(#paint0_linear_55_266)" fill-opacity="0.56"></path><defs><linearGradient id="paint0_linear_55_266" x1="-9" y1="62.593" x2="351.716" y2="51.8683" gradientUnits="userSpaceOnUse"><stop stop-color="#EC8CF9"></stop><stop offset="0.271569" stop-color="#A789ED"></stop><stop offset="0.518042" stop-color="#66DDCB"></stop><stop offset="0.759407" stop-color="#4FE3FC"></stop><stop offset="1" stop-color="#0478CE"></stop></linearGradient></defs></svg>