<svg xmlns="http://www.w3.org/2000/svg" width="86" height="14" viewBox="0 0 86 14" fill="none"><path d="M7 0L8.6458 4.73475L13.6574 4.83688L9.66296 7.86525L11.1145 12.6631L7 9.8L2.8855 12.6631L4.33704 7.86525L0.342604 4.83688L5.3542 4.73475L7 0Z" fill="white"></path><path d="M25 0L26.6458 4.73475L31.6574 4.83688L27.663 7.86525L29.1145 12.6631L25 9.8L20.8855 12.6631L22.337 7.86525L18.3426 4.83688L23.3542 4.73475L25 0Z" fill="white"></path><path d="M43 0L44.6458 4.73475L49.6574 4.83688L45.663 7.86525L47.1145 12.6631L43 9.8L38.8855 12.6631L40.337 7.86525L36.3426 4.83688L41.3542 4.73475L43 0Z" fill="white"></path><path d="M61 0L62.6458 4.73475L67.6574 4.83688L63.663 7.86525L65.1145 12.6631L61 9.8L56.8855 12.6631L58.337 7.86525L54.3426 4.83688L59.3542 4.73475L61 0Z" fill="white"></path><path d="M79 0L80.6458 4.73475L85.6574 4.83688L81.663 7.86525L83.1145 12.6631L79 9.8L74.8855 12.6631L76.337 7.86525L72.3426 4.83688L77.3542 4.73475L79 0Z" fill="white"></path></svg>