<svg width="1920" height="1440" viewBox="0 0 1920 1440" fill="none" xmlns="http://www.w3.org/2000/svg">
<mask id="mask0_516_12686" style="mask-type:alpha" maskUnits="userSpaceOnUse" x="0" y="0" width="1920" height="1440">
<rect width="1920" height="1440" fill="url(#paint0_linear_516_12686)"/>
</mask>
<g mask="url(#mask0_516_12686)">
<g style="mix-blend-mode:luminosity">
<mask id="mask1_516_12686" style="mask-type:luminance" maskUnits="userSpaceOnUse" x="0" y="180" width="1920" height="1080">
<path d="M1920 180H0V1260H1920V180Z" fill="white"/>
</mask>
<g mask="url(#mask1_516_12686)">
<g opacity="0.54125">
<path d="M433.376 880.004C432.01 880.004 430.904 881.11 430.904 882.476C430.904 883.842 432.01 884.948 433.376 884.948C434.742 884.948 435.848 883.842 435.848 882.476C435.848 881.11 434.742 880.004 433.376 880.004Z" fill="white"/>
<path d="M376.399 600.948C375.545 600.948 374.854 601.64 374.854 602.493C374.854 603.347 375.545 604.038 376.399 604.038C377.252 604.038 377.944 603.347 377.944 602.493C377.944 601.64 377.252 600.948 376.399 600.948Z" fill="white"/>
<path d="M1781.7 1152.73C1781.19 1152.73 1780.77 1153.14 1780.77 1153.65C1780.77 1154.17 1781.19 1154.58 1781.7 1154.58C1782.21 1154.58 1782.63 1154.17 1782.63 1153.65C1782.63 1153.14 1782.21 1152.73 1781.7 1152.73Z" fill="white"/>
<path d="M1599.79 481.104C1598.93 481.104 1598.24 481.796 1598.24 482.649C1598.24 483.503 1598.93 484.194 1599.79 484.194C1600.64 484.194 1601.33 483.503 1601.33 482.649C1601.33 481.796 1600.64 481.104 1599.79 481.104Z" fill="white"/>
<path d="M1759.46 729.199C1758.1 729.199 1756.99 730.306 1756.99 731.671C1756.99 733.037 1758.1 734.143 1759.46 734.143C1760.83 734.143 1761.93 733.037 1761.93 731.671C1761.93 730.306 1760.83 729.199 1759.46 729.199Z" fill="white"/>
<path d="M1011.35 714.812C1009.98 714.812 1008.87 715.918 1008.87 717.284C1008.87 718.649 1009.98 719.756 1011.35 719.756C1012.71 719.756 1013.82 718.649 1013.82 717.284C1013.82 715.918 1012.71 714.812 1011.35 714.812Z" fill="white"/>
<path d="M874.057 1212.36C872.691 1212.36 871.585 1213.47 871.585 1214.84C871.585 1216.2 872.691 1217.31 874.057 1217.31C875.423 1217.31 876.529 1216.2 876.529 1214.84C876.529 1213.47 875.423 1212.36 874.057 1212.36Z" fill="white"/>
<path d="M1363.21 1056.74C1362.35 1056.74 1361.66 1057.43 1361.66 1058.29C1361.66 1059.14 1362.35 1059.83 1363.21 1059.83C1364.06 1059.83 1364.75 1059.14 1364.75 1058.29C1364.75 1057.43 1364.06 1056.74 1363.21 1056.74Z" fill="white"/>
<path d="M1774.62 252.549C1773.77 252.549 1773.08 253.24 1773.08 254.094C1773.08 254.947 1773.77 255.639 1774.62 255.639C1775.48 255.639 1776.17 254.947 1776.17 254.094C1776.17 253.24 1775.48 252.549 1774.62 252.549Z" fill="white"/>
<path d="M452.856 1173.55C452.344 1173.55 451.929 1173.97 451.929 1174.48C451.929 1174.99 452.344 1175.41 452.856 1175.41C453.368 1175.41 453.783 1174.99 453.783 1174.48C453.783 1173.97 453.368 1173.55 452.856 1173.55Z" fill="white"/>
<path d="M610.856 318.69C610.002 318.69 609.311 319.381 609.311 320.235C609.311 321.088 610.002 321.78 610.856 321.78C611.709 321.78 612.401 321.088 612.401 320.235C612.401 319.381 611.709 318.69 610.856 318.69Z" fill="white"/>
<path d="M141.612 393.356C140.246 393.356 139.14 394.463 139.14 395.828C139.14 397.194 140.246 398.3 141.612 398.3C142.978 398.3 144.084 397.194 144.084 395.828C144.084 394.463 142.978 393.356 141.612 393.356Z" fill="white"/>
<path d="M102.59 1069.79C101.736 1069.79 101.045 1070.49 101.045 1071.34C101.045 1072.19 101.736 1072.88 102.59 1072.88C103.443 1072.88 104.135 1072.19 104.135 1071.34C104.135 1070.49 103.443 1069.79 102.59 1069.79Z" fill="white"/>
<path d="M812.653 901.397C811.799 901.397 811.108 902.089 811.108 902.942C811.108 903.796 811.799 904.487 812.653 904.487C813.506 904.487 814.198 903.796 814.198 902.942C814.198 902.089 813.506 901.397 812.653 901.397Z" fill="white"/>
<path d="M795.059 521.085C794.547 521.085 794.132 521.5 794.132 522.012C794.132 522.524 794.547 522.939 795.059 522.939C795.571 522.939 795.986 522.524 795.986 522.012C795.986 521.5 795.571 521.085 795.059 521.085Z" fill="white"/>
<path d="M1162.71 247.685C1161.35 247.685 1160.24 248.791 1160.24 250.157C1160.24 251.523 1161.35 252.629 1162.71 252.629C1164.08 252.629 1165.19 251.523 1165.19 250.157C1165.19 248.791 1164.08 247.685 1162.71 247.685Z" fill="white"/>
</g>
<mask id="mask2_516_12686" style="mask-type:luminance" maskUnits="userSpaceOnUse" x="59" y="285" width="196" height="231">
<path d="M60.3453 290.633L248.032 514.308C249.241 515.75 251.391 515.938 252.833 514.728C254.275 513.519 254.463 511.369 253.253 509.927L65.5667 286.251C64.3569 284.81 62.2071 284.622 60.7654 285.831C59.3237 287.041 59.1356 289.191 60.3453 290.633Z" fill="url(#paint1_linear_516_12686)"/>
</mask>
<g mask="url(#mask2_516_12686)">
<path d="M60.3453 290.633L248.032 514.308C249.241 515.75 251.391 515.938 252.833 514.728C254.275 513.519 254.463 511.369 253.253 509.927L65.5667 286.251C64.3569 284.81 62.2071 284.622 60.7654 285.831C59.3237 287.041 59.1356 289.191 60.3453 290.633Z" fill="url(#paint2_linear_516_12686)"/>
</g>
</g>
</g>
<g filter="url(#filter0_f_516_12686)">
<ellipse cx="-160" cy="552" rx="430" ry="207" fill="#420EAB" fill-opacity="0.5"/>
</g>
<g filter="url(#filter1_f_516_12686)">
<ellipse cx="2090" cy="552" rx="430" ry="207" fill="#420EAB" fill-opacity="0.5"/>
</g>
</g>
<defs>
<filter id="filter0_f_516_12686" x="-790" y="145" width="1260" height="814" filterUnits="userSpaceOnUse" color-interpolation-filters="sRGB">
<feFlood flood-opacity="0" result="BackgroundImageFix"/>
<feBlend mode="normal" in="SourceGraphic" in2="BackgroundImageFix" result="shape"/>
<feGaussianBlur stdDeviation="100" result="effect1_foregroundBlur_516_12686"/>
</filter>
<filter id="filter1_f_516_12686" x="1460" y="145" width="1260" height="814" filterUnits="userSpaceOnUse" color-interpolation-filters="sRGB">
<feFlood flood-opacity="0" result="BackgroundImageFix"/>
<feBlend mode="normal" in="SourceGraphic" in2="BackgroundImageFix" result="shape"/>
<feGaussianBlur stdDeviation="100" result="effect1_foregroundBlur_516_12686"/>
</filter>
<linearGradient id="paint0_linear_516_12686" x1="960" y1="1440" x2="960" y2="0" gradientUnits="userSpaceOnUse">
<stop offset="0.2952" stop-opacity="0"/>
<stop offset="0.5095"/>
<stop offset="0.8524" stop-opacity="0"/>
</linearGradient>
<linearGradient id="paint1_linear_516_12686" x1="257.379" y1="520.449" x2="227.783" y2="484.228" gradientUnits="userSpaceOnUse">
<stop stop-color="white"/>
<stop offset="0.54" stop-color="white" stop-opacity="0.5"/>
<stop offset="1" stop-color="white" stop-opacity="0"/>
</linearGradient>
<linearGradient id="paint2_linear_516_12686" x1="257.379" y1="520.449" x2="227.783" y2="484.228" gradientUnits="userSpaceOnUse">
<stop stop-color="#F3663F"/>
<stop offset="0.47" stop-color="#F3663F"/>
<stop offset="1" stop-color="#F3663F"/>
</linearGradient>
</defs>
</svg>
