<svg width="137" height="33" viewBox="0 0 137 33" fill="none" xmlns="http://www.w3.org/2000/svg">
<mask id="mask0_516_13894" style="mask-type:luminance" maskUnits="userSpaceOnUse" x="0" y="0" width="137" height="33">
<path d="M136.784 0.97998H0.363281V32.98H136.784V0.97998Z" fill="white"/>
</mask>
<g mask="url(#mask0_516_13894)">
<path d="M11.1725 18.2057V21.9825C14.0543 21.9792 16.817 20.868 18.8548 18.8928C20.8925 16.9175 22.0388 14.2395 22.0423 11.4462H18.1459C18.1436 13.2382 17.4081 14.9562 16.1009 16.2234C14.7936 17.4906 13.0212 18.2034 11.1725 18.2057Z" fill="#3BE081"/>
<path d="M11.1714 28.6094C9.33591 28.6094 7.57567 27.9027 6.27782 26.6446C4.97997 25.3866 4.25085 23.6803 4.25085 21.9012C4.25085 20.122 4.97997 18.4158 6.27782 17.1577C7.57567 15.8997 9.33591 15.1929 11.1714 15.1929V11.4439C9.75402 11.4419 8.35022 11.7106 7.04002 12.2345C5.72982 12.7584 4.53891 13.5274 3.53529 14.4974C2.53167 15.4675 1.73499 16.6197 1.19073 17.8882C0.646482 19.1567 0.365317 20.5167 0.363292 21.8905C0.361268 23.2643 0.638423 24.6251 1.17893 25.8952C1.71945 27.1651 2.51273 28.3195 3.51349 29.2924C4.51425 30.2652 5.70289 31.0375 7.01153 31.565C8.32018 32.0925 9.7232 32.3651 11.1405 32.3671H11.1714V28.6094Z" fill="#0037FF"/>
<path d="M11.1725 28.6095V32.3586C14.0349 32.3586 16.7801 31.2564 18.8041 29.2945C20.8281 27.3325 21.9652 24.6716 21.9652 21.897H18.0931C18.0919 23.6761 17.3625 25.3822 16.065 26.6407C14.7676 27.8991 13.008 28.6072 11.1725 28.6095Z" fill="#00CCFF"/>
<path d="M11.1725 7.69249V11.4416C14.0349 11.4416 16.7801 10.3394 18.8041 8.37745C20.8281 6.41552 21.9652 3.75457 21.9652 0.97998H18.0931C18.0919 2.75916 17.3625 4.46521 16.065 5.72368C14.7676 6.98215 13.008 7.69022 11.1725 7.69249Z" fill="#861DFF"/>
<path d="M22.0278 7.69249V11.4416C24.8902 11.4416 27.6353 10.3394 29.6593 8.37745C31.6833 6.41552 32.8204 3.75457 32.8204 0.97998H28.9505C28.9493 2.75953 28.2196 4.4659 26.9217 5.72443C25.6237 6.98296 23.8636 7.69078 22.0278 7.69249Z" fill="#FF8110"/>
<path d="M56.3465 17.2114H56.3582C56.927 17.2083 57.4892 17.3237 58.0067 17.5493L58.0086 17.5503C58.4677 17.7489 58.8851 18.0238 59.243 18.3609L59.3934 18.5083C59.8032 18.9394 60.1279 19.4383 60.3524 19.98C60.8323 21.1903 60.8333 22.5299 60.3553 23.7407C60.1313 24.2856 59.8057 24.7873 59.3934 25.2202C59.004 25.6262 58.5324 25.9534 58.0076 26.1812L58.0067 26.1821C57.5538 26.3793 57.0668 26.4927 56.5711 26.5171L56.3582 26.522H56.3445C56.0146 26.528 55.6857 26.4844 55.3699 26.3931C55.1052 26.3111 54.8474 26.2102 54.5975 26.0933C54.3794 25.9748 54.1756 25.8342 53.992 25.6714L52.8572 24.6655V30.0445H51.5252V17.3267H52.4002L52.6863 17.9497L53.0701 18.7857L53.7586 18.1753C53.9636 17.9935 54.1907 17.8355 54.4354 17.7056C54.7093 17.5699 54.994 17.4553 55.2869 17.3628C55.6292 17.2582 55.9872 17.2072 56.3465 17.2114ZM56.0047 18.3491C55.5614 18.3491 55.1214 18.4332 54.7108 18.5982C54.3001 18.763 53.9255 19.0054 53.6092 19.312L54.0799 19.7984L54.0682 19.7866L53.6092 19.312L53.6004 19.3208C52.9348 19.9882 52.6288 20.863 52.6287 21.8706C52.6287 22.8784 52.9347 23.7539 53.6004 24.4214V24.4204C53.9136 24.7384 54.2901 24.9886 54.7059 25.1558C55.071 25.3026 55.4602 25.3831 55.8533 25.3941H56.0018L56.0067 25.395C56.4501 25.4024 56.8915 25.3211 57.3026 25.1558L57.3016 25.1548C57.7165 24.9881 58.0922 24.7392 58.4051 24.4224L58.4061 24.4234C58.9929 23.8399 59.3012 23.0956 59.368 22.2417L59.3826 21.8696C59.4007 21.4108 59.3273 20.953 59.1658 20.522C59.0002 20.0799 58.7455 19.675 58.4188 19.3316L58.41 19.3218L58.4002 19.312L58.2781 19.2007C57.9888 18.9465 57.6571 18.7425 57.2977 18.5982C56.8871 18.4333 56.4479 18.3492 56.0047 18.3491Z" fill="white"/>
<path d="M53.6092 19.312C53.9255 19.0054 54.3001 18.763 54.7108 18.5982C55.1214 18.4332 55.5614 18.3491 56.0047 18.3491C56.4479 18.3492 56.8871 18.4333 57.2977 18.5982C57.6571 18.7425 57.9888 18.9465 58.2781 19.2007L58.4002 19.312L58.41 19.3218L58.4188 19.3316C58.7455 19.675 59.0002 20.0799 59.1658 20.522C59.3273 20.953 59.4007 21.4108 59.3826 21.8696L59.368 22.2417C59.3012 23.0956 58.9929 23.8399 58.4061 24.4234L58.4051 24.4224C58.0922 24.7392 57.7165 24.9881 57.3016 25.1548L57.3026 25.1558C56.8915 25.3211 56.4501 25.4024 56.0067 25.395L56.0018 25.3941H55.8533C55.4602 25.3831 55.071 25.3026 54.7059 25.1558C54.2901 24.9886 53.9136 24.7384 53.6004 24.4204V24.4214C52.9347 23.7539 52.6287 22.8784 52.6287 21.8706C52.6288 20.863 52.9348 19.9882 53.6004 19.3208L53.6092 19.312ZM53.6092 19.312L54.0799 19.7984L54.0682 19.7866L53.6092 19.312ZM56.3465 17.2114H56.3582C56.927 17.2083 57.4892 17.3237 58.0067 17.5493L58.0086 17.5503C58.4677 17.7489 58.8851 18.0238 59.243 18.3609L59.3934 18.5083C59.8032 18.9394 60.1279 19.4383 60.3524 19.98C60.8323 21.1903 60.8333 22.5299 60.3553 23.7407C60.1313 24.2856 59.8057 24.7873 59.3934 25.2202C59.004 25.6262 58.5324 25.9534 58.0076 26.1812L58.0067 26.1821C57.5538 26.3793 57.0668 26.4927 56.5711 26.5171L56.3582 26.522H56.3445C56.0146 26.528 55.6857 26.4844 55.3699 26.3931C55.1052 26.3111 54.8474 26.2102 54.5975 26.0933C54.3794 25.9748 54.1756 25.8342 53.992 25.6714L52.8572 24.6655V30.0445H51.5252V17.3267H52.4002L52.6863 17.9497L53.0701 18.7857L53.7586 18.1753C53.9636 17.9935 54.1907 17.8355 54.4354 17.7056C54.7093 17.5699 54.994 17.4553 55.2869 17.3628C55.6292 17.2582 55.9872 17.2072 56.3465 17.2114Z" stroke="white" stroke-width="1.36421"/>
<path d="M66.2245 14.8311V17.334H68.5682V18.3545H66.2245V23.3555C66.2107 23.609 66.2435 23.8625 66.3241 24.1035C66.4106 24.3622 66.5482 24.6009 66.7284 24.8057C66.9083 25.0102 67.1266 25.1779 67.371 25.2988C67.6142 25.4193 67.8791 25.4903 68.1493 25.5117C68.2397 25.5193 68.3303 25.5194 68.4208 25.5147C68.4322 25.5151 68.4436 25.5153 68.455 25.5156V26.4854C68.2615 26.5218 68.0644 26.5387 67.8671 26.5322L67.8514 26.5313H67.8368C67.4203 26.5361 67.0066 26.4627 66.62 26.3154C66.2779 26.1822 65.9713 25.9789 65.7216 25.7207C65.5226 25.5113 65.3578 25.2761 65.2303 25.0225L65.1161 24.7637C64.9595 24.3502 64.8833 23.9129 64.8905 23.4737V18.3477H63.2489V17.5537H63.2704C63.8003 17.5537 64.3241 17.4255 64.7128 17.0488C65.1055 16.6682 65.243 16.1478 65.243 15.6201V14.8311H66.2245Z" fill="white" stroke="white" stroke-width="1.36421"/>
<path d="M73.4913 17.3264V26.4241H72.1603V17.3264H73.4913ZM72.4913 13.1194C72.6821 13.0399 72.8973 13.0265 73.0978 13.0833C73.2981 13.14 73.4674 13.2615 73.5792 13.4212C73.6629 13.5408 73.7115 13.6772 73.7228 13.8167L73.7218 13.9563C73.7037 14.143 73.6182 14.3218 73.4757 14.4602L73.462 14.4739C73.3903 14.5476 73.3023 14.6074 73.2032 14.6487C73.1042 14.6899 72.9964 14.7115 72.8868 14.7112H72.8683C72.711 14.715 72.5576 14.6795 72.423 14.6096L72.295 14.5286C72.1749 14.4373 72.0847 14.3194 72.0294 14.1887L71.9855 14.054L71.9669 13.9143C71.9608 13.7749 71.9924 13.6351 72.0597 13.5081C72.1497 13.3382 72.3008 13.1989 72.4913 13.1194Z" fill="white" stroke="white" stroke-width="1.36421"/>
<path d="M81.7895 17.2117H81.8139C82.2098 17.202 82.6046 17.2603 82.978 17.3855V17.3865C83.2634 17.4872 83.5352 17.6195 83.7885 17.7801C83.9842 17.915 84.1514 18.0821 84.2807 18.2732L84.7485 18.9646L85.3325 18.3689C85.5468 18.1505 85.7887 17.9591 86.0541 17.8006L86.0551 17.8016C86.3397 17.6372 86.6393 17.4975 86.9506 17.3855C87.2874 17.2662 87.644 17.2074 88.0034 17.2117H88.0112C89.031 17.2117 89.7797 17.5222 90.3364 18.0955C90.8739 18.6492 91.1987 19.5275 91.1987 20.8484V26.4178H89.8627V21.0769C89.8917 20.3615 89.6394 19.6653 89.1606 19.1287C88.9611 18.9047 88.7201 18.7223 88.4496 18.5906C88.1797 18.4586 87.8873 18.3804 87.5873 18.3592C87.2877 18.338 86.9864 18.3748 86.7006 18.4666C86.4149 18.5585 86.1485 18.7042 85.9184 18.8973L85.9106 18.9041C85.831 18.9728 85.7562 19.0458 85.686 19.1228L85.6811 19.1277C85.2028 19.6634 84.9514 20.3606 84.9828 21.0769H84.9809V26.4178H83.6469V21.0769C83.6777 20.3615 83.4258 19.6641 82.9467 19.1277C82.7473 18.9041 82.5054 18.722 82.2358 18.5906C81.9656 18.459 81.6724 18.3804 81.3725 18.3592C81.0727 18.338 80.7709 18.3746 80.4848 18.4666C80.1987 18.5586 79.9325 18.7045 79.7026 18.8973L79.6987 18.9012C79.6165 18.9713 79.5391 19.0477 79.4672 19.1287C78.9886 19.6653 78.737 20.3616 78.7661 21.0769L78.7651 26.4178H77.433V17.3269H78.308L78.5942 17.95L78.9955 18.824L79.6879 18.156C79.8713 17.9788 80.0735 17.8198 80.2914 17.6824C80.5105 17.5514 80.7414 17.4388 80.9819 17.3484C81.2391 17.2539 81.5136 17.2083 81.7895 17.2117Z" fill="white" stroke="white" stroke-width="1.36421"/>
<path d="M96.3604 17.3262V26.4238H95.0215V17.3262H96.3604ZM95.3496 13.1104C95.5412 13.0305 95.7572 13.018 95.959 13.0752C96.1607 13.1325 96.3308 13.2542 96.4424 13.4141L96.4434 13.4151C96.5551 13.5746 96.6043 13.7644 96.5859 13.9522C96.5674 14.1407 96.4818 14.3206 96.3389 14.459L96.3311 14.4658L96.3242 14.4727C96.2517 14.547 96.1642 14.6073 96.0654 14.6485C95.9675 14.6893 95.8585 14.7112 95.749 14.711H95.7295C95.5183 14.7163 95.3143 14.6497 95.1533 14.5274C94.9919 14.4051 94.8832 14.2357 94.8418 14.0518V14.0498L94.8223 13.9102C94.8159 13.77 94.8474 13.6295 94.915 13.502L94.916 13.501C95.0059 13.331 95.1576 13.1905 95.3496 13.1104Z" fill="white" stroke="white" stroke-width="1.36421"/>
<path d="M106.432 17.326V18.5623L101.899 24.1814L101.003 25.2918H106.671V26.4286H99.7059V25.1805L104.244 19.573L105.143 18.4627H99.7059V17.326H106.432Z" fill="white" stroke="white" stroke-width="1.36421"/>
<path d="M114.118 17.2062C114.652 17.2018 115.182 17.2883 115.683 17.4621L115.896 17.5421C116.428 17.7621 116.909 18.0822 117.309 18.4826C117.726 18.9073 118.053 19.4047 118.274 19.9484V19.9494C118.52 20.5573 118.642 21.2049 118.634 21.8566L118.633 21.8693C118.634 21.9488 118.629 22.0299 118.619 22.1115C118.615 22.1427 118.61 22.1743 118.606 22.2052H110.838L111.031 23.0412C111.181 23.691 111.541 24.2725 112.052 24.7042L112.061 24.7121L112.07 24.7189C112.657 25.1817 113.395 25.4167 114.144 25.3878C114.515 25.3954 114.885 25.35 115.242 25.2511L115.25 25.2482L115.258 25.2462C115.528 25.1644 115.788 25.0504 116.031 24.9064L116.039 24.9005L116.049 24.8956C116.188 24.8068 116.318 24.7039 116.439 24.5919H117.838L117.775 24.6837L117.769 24.6915C117.515 25.0402 117.206 25.3511 116.855 25.6144C116.481 25.8914 116.067 26.1166 115.625 26.2814C115.159 26.4507 114.663 26.5361 114.164 26.5314H114.156C113.535 26.5337 112.92 26.4064 112.355 26.1603L112.351 26.1583L112.142 26.0636C111.662 25.8316 111.226 25.5242 110.852 25.1535L110.851 25.1515L110.692 24.9874C110.381 24.6514 110.12 24.2762 109.917 23.8722L109.822 23.6671C109.574 23.0962 109.447 22.4833 109.447 21.8644C109.447 21.2438 109.574 20.629 109.823 20.0568C110.067 19.5081 110.416 19.007 110.851 18.5783V18.5773C111.279 18.1539 111.787 17.8122 112.349 17.5714C112.907 17.3354 113.509 17.2114 114.118 17.2062ZM114.158 18.3165C113.487 18.3166 112.833 18.5157 112.283 18.8859L112.052 19.0548C111.458 19.5339 111.052 20.203 110.909 20.9484L110.753 21.7589H117.563L117.408 20.9484C117.265 20.2029 116.857 19.534 116.262 19.0548C115.668 18.5759 114.923 18.3165 114.158 18.3165Z" fill="white" stroke="white" stroke-width="1.36421"/>
<path d="M123.322 13.4614V26.4175H121.989V13.4614H123.322Z" fill="white" stroke="white" stroke-width="1.36421"/>
<path d="M127.753 17.326L130.279 23.7127L130.942 25.3866L131.556 23.6941L133.863 17.326H135.19C134.57 18.8667 134.001 20.2819 133.48 21.5702L133.478 21.573C133.212 22.2386 132.95 22.8903 132.693 23.5224C132.434 24.1605 132.205 24.7474 131.999 25.2703L131.998 25.2714C131.792 25.7973 131.626 26.2266 131.486 26.5691L131.485 26.5711C131.413 26.7505 131.362 26.881 131.32 26.9813C131.3 27.0305 131.285 27.0653 131.275 27.0888C131.272 27.0936 131.27 27.0976 131.269 27.1005L131.251 27.1297L131.232 27.1786C131.017 27.6929 130.768 28.1921 130.485 28.6737L130.482 28.6805C130.34 28.9282 130.171 29.1613 129.977 29.3738L129.774 29.58C129.571 29.772 129.328 29.9217 129.061 30.0203C128.756 30.1229 128.435 30.1741 128.11 30.1688H128.099C128.012 30.1688 127.928 30.1647 127.845 30.16V29.2099C128.232 29.1339 128.602 28.9776 128.927 28.747L128.944 28.7351L128.96 28.7215C129.373 28.389 129.696 27.9622 129.901 27.4783L129.903 27.4715L130.137 26.9042L130.243 26.6453L130.137 26.3855L126.419 17.326H127.753Z" fill="white" stroke="white" stroke-width="1.36421"/>
<path d="M40.857 12.1255C41.8382 12.1252 42.8099 12.3128 43.7154 12.6763C44.6209 13.0397 45.4426 13.572 46.1334 14.2417C46.8242 14.9113 47.3711 15.7054 47.7437 16.5777C48.1161 17.4496 48.3074 18.3834 48.3072 19.3257V19.3267C48.3071 20.7459 47.873 22.1354 47.0572 23.3189C46.2411 24.5027 45.0781 25.4285 43.7144 25.9761C42.3507 26.5235 40.8491 26.6666 39.4 26.3872C37.9509 26.1079 36.6222 25.4193 35.5816 24.4107C34.5412 23.4022 33.8351 22.1196 33.5494 20.7271C33.2636 19.3346 33.4101 17.8907 33.9713 16.5777C34.5325 15.2643 35.485 14.1389 36.7105 13.3452C37.9362 12.5515 39.379 12.1255 40.857 12.1255ZM46.7877 19.2671C46.7771 18.1082 46.4125 16.98 45.7418 16.0259C45.0711 15.072 44.1256 14.3357 43.0279 13.9068C41.9303 13.478 40.7269 13.3743 39.5699 13.6089C38.4126 13.8437 37.3497 14.4071 36.5181 15.23C35.6863 16.0532 35.1224 17.1002 34.9019 18.2388C34.6815 19.3772 34.815 20.5531 35.2838 21.6167C35.7527 22.6802 36.5354 23.582 37.5289 24.2095C38.328 24.7141 39.2358 25.0229 40.1754 25.1177V25.1607L40.8619 25.1558C42.434 25.145 43.942 24.5313 45.0543 23.4419C46.0977 22.4198 46.7133 21.0566 46.7818 19.6187L46.7877 19.3306V19.2671Z" fill="white" stroke="white" stroke-width="1.36421"/>
</g>
</svg>
