<svg width="137" height="33" viewBox="0 0 137 33" fill="none" xmlns="http://www.w3.org/2000/svg">
<mask id="mask0_516_13914" style="mask-type:luminance" maskUnits="userSpaceOnUse" x="0" y="0" width="137" height="33">
<path d="M136.251 0.97998H0.784424V32.98H136.251V0.97998Z" fill="white"/>
</mask>
<g mask="url(#mask0_516_13914)">
<path d="M17.9664 1.56727L28.2522 7.33922C29.6875 8.14465 30.5751 9.65529 30.5751 11.2928V22.6673C30.5751 24.3047 29.6875 25.8153 28.2522 26.6207L17.9664 32.3927C16.571 33.1757 14.8648 33.1757 13.4693 32.3927L3.18356 26.6207C1.74827 25.8153 0.860718 24.3047 0.860718 22.6673V11.2928C0.860718 9.65529 1.74827 8.14465 3.18356 7.33922L13.4693 1.56727C14.8648 0.784217 16.571 0.784217 17.9664 1.56727ZM2.57501 11.3388V22.6673C2.57501 23.6838 3.127 24.6233 4.02249 25.1258L14.1622 30.8157C14.2935 30.8666 14.4334 30.893 14.5751 30.893C15.2062 30.893 15.7179 30.3813 15.7179 29.7501V20.5937C15.7179 19.1014 14.8873 17.7332 13.5633 17.0447L12.8086 16.6523C12.6305 16.5765 12.4547 16.4935 12.2817 16.4031L2.57501 11.3388ZM13.2091 15.3899C15.031 16.3404 16.4097 16.3404 18.2316 15.3899L28.0789 9.86164C27.8364 9.30642 27.4158 8.83267 26.8656 8.52391L17.1276 3.06225C16.2533 2.57161 15.1825 2.57161 14.3082 3.06225L4.58864 8.52391C4.0384 8.83267 3.61787 9.30642 3.37537 9.86164L13.2091 15.3899ZM15.7179 4.97998C17.8607 4.97998 19.6101 6.03312 19.7131 7.35645L19.7179 9.62284C19.7179 11.0036 17.9271 12.1228 15.7179 12.1228C13.5087 12.1228 11.7179 11.0036 11.7179 9.62284V7.35645C11.8257 6.03312 13.5751 4.97998 15.7179 4.97998ZM15.7183 8.97998C17.574 8.97998 19.0783 8.22782 19.0783 7.29998C19.0783 6.37214 17.574 5.61998 15.7183 5.61998C13.8626 5.61998 12.3583 6.37214 12.3583 7.29998C12.3583 8.22782 13.8626 8.97998 15.7183 8.97998Z" fill="#5A45FF"/>
<path fill-rule="evenodd" clip-rule="evenodd" d="M46.3324 17.8386C46.3324 19.1203 46.662 20.1503 47.3212 20.9284C47.9803 21.7067 48.8501 22.0957 49.9304 22.0957C50.974 22.0957 51.8255 21.7021 52.4847 20.9148C53.1439 20.1273 53.4735 19.0929 53.4735 17.8112C53.4735 16.5477 53.153 15.5407 52.5122 14.79C51.8713 14.0392 51.0199 13.6639 49.9578 13.6639C48.8959 13.6639 48.0262 14.0438 47.3487 14.8037C46.6712 15.5636 46.3324 16.5752 46.3324 17.8386ZM56.5495 4.68274V24.5676H54.7494C54.2728 24.5676 53.8364 24.3001 53.62 23.8755C53.504 23.6478 53.4459 23.4263 53.4459 23.2112C53.0762 23.6338 52.7823 23.9887 52.0865 24.3732C51.3906 24.7577 50.4706 24.8972 49.5734 24.8972C47.6691 24.8972 46.1219 24.2289 44.9317 22.8923C43.7416 21.5555 43.1465 19.871 43.1465 17.8386C43.1465 15.8794 43.7462 14.2224 44.9455 12.8674C46.1448 11.5124 47.6691 10.8349 49.5185 10.8349C50.5804 10.8349 51.4364 11.0272 52.0865 11.4117C52.7364 11.7963 53.1896 12.2449 53.4459 12.7575V4.68274H56.5495ZM67.9179 11.0272V14.2681H67.5081C65.1095 14.2681 63.9102 15.5773 63.9102 18.1956V24.5676H60.7242V11.192H62.7904C63.1569 11.192 63.4817 11.4283 63.5944 11.7771L63.9102 12.7534C64.0623 12.4365 64.4849 11.7329 65.2243 11.38C65.9637 11.0272 66.8215 11.0272 67.7003 11.0272H67.9179ZM69.7032 20.9422C69.7032 19.8069 70.074 18.896 70.8155 18.2094C71.5571 17.5228 72.5321 17.0879 73.7407 16.9048L77.1737 16.3829C77.8329 16.2914 78.1625 15.971 78.1625 15.4216C78.1625 14.8175 77.952 14.3277 77.5308 13.9523C77.1097 13.5769 76.4779 13.3892 75.6357 13.3892C74.83 13.3892 74.1892 13.6135 73.7131 14.0622C73.2371 14.5107 72.9624 15.092 72.8892 15.8062L70.018 15.7788C70.1462 14.5702 70.6828 12.9086 71.7082 12.0572C72.7335 11.2057 74.0336 10.78 75.6083 10.78C77.5491 10.78 78.9818 11.2469 79.9065 12.1808C80.8312 13.1145 81.2935 14.3139 81.2935 15.7788V22.4253C81.2935 23.3042 81.3484 24.0182 81.4583 24.5676H79.7451C79.564 24.5676 79.3845 24.5343 79.2154 24.4695C78.6473 24.2516 78.3632 23.8969 78.3632 23.4056C77.7295 24.462 76.1026 24.9795 74.235 24.9795C72.8801 24.9795 71.786 24.5813 70.9529 23.7848C70.1197 22.9884 69.7032 22.0407 69.7032 20.9422ZM74.8392 22.4802C75.828 22.4802 76.6291 22.2101 77.2424 21.67C77.8559 21.1298 78.1625 20.2464 78.1625 19.0196V18.4153L74.6744 18.9373C73.4842 19.1387 72.8892 19.7428 72.8892 20.75C72.8892 21.226 73.0631 21.6334 73.4111 21.9721C73.7589 22.3108 74.2349 22.4802 74.8392 22.4802ZM91.0711 7.82434C90.5401 7.82434 90.0778 7.97539 89.6841 8.27751C89.2905 8.57962 89.0936 9.10603 89.0936 9.85675V11.192H92.1972V13.9661H89.0936V24.5676H85.8802V13.9661H83.5457V11.192H84.4626C85.2455 11.192 85.8802 10.5573 85.8802 9.77436C85.8802 8.29123 86.3105 7.1194 87.1711 6.25881C88.0316 5.39824 89.1577 4.96795 90.5493 4.96795H92.1972V7.82434H91.0711ZM99.6931 7.15461V11.2469H102.467V14.0758H99.6931V20.283C99.6931 20.8689 99.8305 21.2946 100.105 21.5601C100.38 21.8256 100.81 21.9584 101.396 21.9584H101.833V24.7873H100.544C99.2994 24.7873 98.3199 24.4349 97.6057 23.7299C96.8917 23.0249 96.5346 22.0499 96.5346 20.8049V14.0758H94.0627V11.2469H94.7494C95.4268 11.2469 95.9395 11.0547 96.2874 10.6702C96.6353 10.2856 96.8092 9.78211 96.8092 9.15956V7.15461H99.6931ZM105.049 4.61936H108.152V12.804C108.409 12.2913 108.941 11.8702 109.591 11.4857C110.241 11.1012 111.275 10.8518 112.337 10.8518C114.187 10.8518 115.664 11.4491 116.864 12.804C118.063 14.159 118.464 15.8646 118.464 17.8238C118.464 19.8563 118.068 21.4921 116.877 22.8288C115.688 24.1654 114.03 24.9014 112.126 24.9014C111.229 24.9014 110.419 24.6944 109.723 24.3099C109.028 23.9253 108.522 23.5703 108.152 23.1478C108.152 23.363 108.094 23.5844 107.978 23.8121C107.761 24.2368 107.325 24.5042 106.849 24.5042H105.049V4.61936ZM114.27 20.9422C114.948 20.1731 115.287 19.1386 115.287 17.8386C115.287 16.5385 114.957 15.5179 114.298 14.7762C113.639 14.0347 112.769 13.6639 111.689 13.6639C110.645 13.6639 109.785 14.0347 109.108 14.7762C108.429 15.5179 108.091 16.5385 108.091 17.8386C108.091 19.1203 108.429 20.1457 109.108 20.9148C109.785 21.6837 110.645 22.0683 111.689 22.0683C112.751 22.0683 113.611 21.6929 114.27 20.9422ZM121.576 14.3378H120.26V11.1688H123.429V11.192H124.735V24.5676H121.576V14.3378ZM121.686 7.95109C121.284 7.54827 121.082 7.06306 121.082 6.49544C121.082 5.92782 121.284 5.43803 121.686 5.02605C122.089 4.61408 122.574 4.40808 123.142 4.40808C123.727 4.40808 124.222 4.60949 124.625 5.01232C125.028 5.41514 125.229 5.90951 125.229 6.49544C125.229 7.06306 125.028 7.54827 124.625 7.95109C124.222 8.35392 123.727 8.55532 123.142 8.55532C122.574 8.55532 122.089 8.35392 121.686 7.95109ZM132.892 7.09968V11.192H135.665V14.0209H132.892V20.228C132.892 20.814 133.03 21.2397 133.304 21.5052C133.579 21.7708 134.009 21.9035 134.595 21.9035H135.032V24.7324H133.743C132.499 24.7324 131.518 24.3799 130.805 23.675C130.09 22.97 129.734 21.995 129.734 20.75V14.0209H127.261V11.192H127.948C128.625 11.192 129.139 10.9997 129.486 10.6152C129.834 10.2307 130.008 9.72717 130.008 9.10464V7.09968H132.892Z" fill="white"/>
</g>
</svg>
