<svg width="190" height="33" viewBox="0 0 190 33" fill="none" xmlns="http://www.w3.org/2000/svg">
<mask id="mask0_516_13921" style="mask-type:luminance" maskUnits="userSpaceOnUse" x="0" y="0" width="190" height="33">
<path d="M189.704 0.97998H0.250977V32.98H189.704V0.97998Z" fill="white"/>
</mask>
<g mask="url(#mask0_516_13921)">
<path d="M77.6025 9.30371V10.3691H72.4033V24.3916H70.749V10.3691H65.5498V9.30371H77.6025Z" fill="white" stroke="white" stroke-width="1.89453"/>
<path d="M81.0725 13.5488L83.5149 22.2119L83.7102 22.9024H85.2747L85.4709 22.2139L87.9368 13.5488H89.6252L85.1174 26.4014L85.1165 26.4043C84.9103 26.9986 84.6366 27.4973 84.303 27.9121L84.2961 27.9209C83.9912 28.3093 83.6043 28.6102 83.1204 28.8262L83.1145 28.8291C82.6484 29.0414 82.043 29.167 81.2678 29.167C80.8931 29.167 80.5498 29.1369 80.2356 29.083L80.4944 28.2266C80.6417 28.2467 80.787 28.2619 80.9299 28.2666C81.4346 28.2833 81.9253 28.1654 82.3557 27.875L82.3567 27.876L82.3596 27.8731L82.3655 27.8701L82.3645 27.8692C82.8267 27.5579 83.1245 27.0867 83.3196 26.585L83.3215 26.5821L83.5286 26.043L83.6526 25.7188L83.5383 25.3906L79.4084 13.5488H81.0725Z" fill="white" stroke="white" stroke-width="1.89453"/>
<path d="M95.0708 13.5493V15.688H95.9341C95.7256 15.9814 95.5557 16.3083 95.4224 16.6626L95.4214 16.6636C95.1623 17.3528 95.0464 18.1285 95.0464 18.9702C95.0464 19.7073 95.1353 20.3945 95.3306 21.0191L95.4204 21.2827C95.5665 21.6746 95.7584 22.0329 95.9956 22.3511H95.1206V29.1675H93.4829V13.5493H95.0708ZM99.7993 13.3833C100.553 13.3833 101.236 13.5782 101.871 13.9712L101.875 13.9732C102.48 14.3438 102.994 14.9203 103.399 15.7583L103.4 15.7603C103.789 16.5612 104.01 17.6223 104.01 18.9868C104.01 20.3101 103.796 21.3636 103.412 22.1831L103.411 22.1851C103.021 23.0204 102.512 23.6093 101.9 24.0015C101.28 24.3965 100.586 24.5981 99.7915 24.5982C99.21 24.5982 98.7739 24.5021 98.4507 24.3511C98.0754 24.1721 97.7933 23.9608 97.5854 23.728C97.4977 23.6275 97.4211 23.5276 97.3511 23.4312C97.7612 23.6008 98.2053 23.6821 98.6714 23.6821C99.4302 23.6821 100.132 23.4693 100.719 23.0044L100.725 22.9995C101.28 22.5528 101.672 21.9564 101.925 21.2583L101.924 21.2573C102.179 20.5642 102.297 19.7967 102.297 18.9702C102.297 18.2517 102.21 17.5794 102.02 16.9644L101.933 16.7036C101.679 16.0096 101.284 15.4179 100.727 14.9771C100.138 14.5109 99.4331 14.2993 98.6714 14.2993C98.2243 14.2994 97.7969 14.3731 97.3999 14.5259C97.454 14.4523 97.5139 14.3773 97.5776 14.3003L97.5767 14.2993C97.7804 14.0546 98.0587 13.8347 98.4321 13.648L98.436 13.646C98.7487 13.488 99.1889 13.3833 99.7993 13.3833Z" fill="white" stroke="white" stroke-width="1.89453"/>
<path d="M109.19 20.8208C109.262 21.2166 109.381 21.5926 109.558 21.9429L109.562 21.9517C109.84 22.4879 110.226 22.9304 110.717 23.2622L110.933 23.398C111.533 23.7443 112.215 23.898 112.941 23.898C113.362 23.8979 113.77 23.8452 114.158 23.7329L114.323 23.6812C114.769 23.5298 115.171 23.296 115.51 22.9732C115.673 22.8173 115.815 22.6445 115.938 22.4595L117.329 22.5513C117.213 22.7533 117.078 22.9434 116.922 23.1216C116.523 23.5769 115.991 23.9502 115.303 24.228C114.636 24.4941 113.835 24.6402 112.883 24.6402C111.704 24.6401 110.745 24.4023 109.969 23.9683C109.192 23.5244 108.595 22.9028 108.169 22.0835C107.972 21.7031 107.819 21.283 107.709 20.8208H109.19ZM112.742 13.3833C113.479 13.3833 114.148 13.5022 114.757 13.73L114.764 13.7329C115.368 13.9524 115.886 14.2801 116.329 14.7183L116.333 14.7212C116.769 15.1483 117.124 15.7 117.385 16.3999L117.386 16.4019C117.641 17.0788 117.781 17.9064 117.781 18.9038V18.9263H111.003V18.6323H116.35V17.6851C116.35 17.0349 116.208 16.4204 115.897 15.8687C115.594 15.3297 115.166 14.9009 114.629 14.5952C114.626 14.5937 114.624 14.5919 114.622 14.5904C114.62 14.5894 114.618 14.5884 114.616 14.5874C114.067 14.2699 113.451 14.1255 112.8 14.1255C112.112 14.1255 111.466 14.2863 110.889 14.6314C110.339 14.9586 109.901 15.4074 109.588 15.9654C109.448 16.2121 109.341 16.4705 109.262 16.7378H107.863C107.95 16.4834 108.052 16.2415 108.17 16.0122C108.6 15.1755 109.194 14.5372 109.959 14.0786L109.96 14.0796C110.72 13.627 111.636 13.3833 112.742 13.3833ZM109.108 18.6323V18.9263H108.921V18.6323H109.108Z" fill="white" stroke="white" stroke-width="1.89453"/>
<path d="M125.485 13.3838C126.096 13.3838 126.532 13.4887 126.836 13.6446L126.848 13.6504C127.227 13.8375 127.5 14.056 127.695 14.2949L127.7 14.3008L127.705 14.3076C127.768 14.3823 127.826 14.455 127.879 14.5264C127.484 14.3734 127.058 14.2998 126.613 14.2998C125.851 14.2999 125.146 14.5104 124.557 14.9766C124.07 15.3625 123.707 15.8646 123.454 16.4492L123.352 16.7041C123.101 17.3883 122.988 18.1496 122.988 18.9707C122.988 19.7966 123.101 20.5637 123.35 21.2559L123.354 21.2656C123.612 21.9576 124.001 22.5508 124.546 22.9961L124.551 23L124.557 23.0049C125.146 23.471 125.851 23.6816 126.613 23.6817C127.076 23.6817 127.517 23.6018 127.924 23.4336C127.854 23.5295 127.778 23.629 127.691 23.7285L127.69 23.7295C127.491 23.958 127.213 24.1684 126.831 24.3487L126.828 24.3506C126.512 24.5011 126.079 24.5986 125.494 24.5987C124.698 24.5987 123.998 24.3963 123.372 23.999C122.767 23.6065 122.259 23.017 121.865 22.1817C121.486 21.3618 121.275 20.3079 121.275 18.9863C121.275 17.6222 121.495 16.5616 121.884 15.7608L121.885 15.7588C122.291 14.9187 122.804 14.3419 123.404 13.9717L123.406 13.9707C124.039 13.5785 124.725 13.3839 125.485 13.3838ZM131.793 9.30371V24.3916H130.206V22.3516H129.281C129.518 22.0333 129.709 21.6743 129.855 21.2822C130.119 20.5889 130.239 19.8121 130.239 18.9707C130.239 18.234 130.15 17.5475 129.954 16.9258L129.863 16.6631C129.729 16.3086 129.559 15.9816 129.349 15.6885H130.164V9.30371H131.793Z" fill="white" stroke="white" stroke-width="1.89453"/>
<path d="M137.889 13.5493V15.771H138.84C138.707 15.9251 138.586 16.0909 138.479 16.27L138.474 16.2788C138.147 16.8392 137.996 17.4668 137.996 18.1323V24.3911H136.359V13.5493H137.889ZM142.029 13.3667C142.081 13.3667 142.135 13.369 142.193 13.3716V14.5659C142.005 14.5499 141.822 14.5405 141.647 14.5405C141.037 14.5406 140.459 14.6643 139.93 14.9282C140.09 14.4603 140.311 14.1307 140.573 13.8989L140.699 13.7954L140.704 13.7915C141.08 13.5104 141.51 13.3667 142.029 13.3667Z" fill="white" stroke="white" stroke-width="1.89453"/>
<path d="M146.251 20.8208C146.323 21.2165 146.442 21.5925 146.62 21.9429L146.624 21.9517C146.901 22.4879 147.288 22.9304 147.778 23.2622L147.995 23.398C148.595 23.7442 149.276 23.898 150.002 23.898C150.424 23.8979 150.831 23.8452 151.219 23.7329L151.384 23.6812C151.775 23.5487 152.131 23.3527 152.441 23.0894L152.571 22.9732C152.735 22.8171 152.877 22.6447 153 22.4595L154.39 22.5513C154.274 22.7533 154.139 22.9435 153.983 23.1216C153.584 23.5771 153.052 23.9502 152.365 24.228C151.697 24.4941 150.897 24.6402 149.944 24.6402C148.766 24.6401 147.807 24.4024 147.031 23.9683C146.35 23.5797 145.807 23.0549 145.397 22.3804L145.229 22.0825C145.033 21.7024 144.88 21.2825 144.77 20.8208H146.251ZM149.803 13.3833C150.54 13.3833 151.209 13.5021 151.818 13.73L151.826 13.7329C152.429 13.9524 152.947 14.2801 153.39 14.7183L153.394 14.7212C153.83 15.1482 154.185 15.6999 154.447 16.3999L154.448 16.4019C154.703 17.0788 154.842 17.9064 154.842 18.9038V18.9263H148.064V18.6323H153.412V17.6851C153.412 17.0351 153.269 16.4206 152.958 15.8687C152.655 15.3299 152.228 14.9008 151.691 14.5952H151.692C151.14 14.2717 150.518 14.1255 149.861 14.1255C149.258 14.1256 148.688 14.2493 148.167 14.5122L147.948 14.6333C147.466 14.9202 147.071 15.3003 146.77 15.7652L146.649 15.9654C146.509 16.2121 146.403 16.4706 146.325 16.7378H144.925C145.012 16.4835 145.113 16.2414 145.231 16.0122C145.661 15.1751 146.255 14.5373 147.02 14.0786L147.021 14.0796C147.781 13.627 148.698 13.3833 149.803 13.3833ZM146.169 18.6323V18.9263H145.983V18.6323H146.169Z" fill="white" stroke="white" stroke-width="1.89453"/>
<path d="M163.26 13.3833C163.892 13.3834 164.489 13.457 165.056 13.6021L165.057 13.603C165.61 13.7439 166.082 13.957 166.484 14.2349L166.489 14.2378C166.871 14.4989 167.169 14.832 167.393 15.2486L167.394 15.2495C167.597 15.6245 167.719 16.112 167.719 16.7476V24.3911H166.262V22.6245H165.53C165.559 22.583 165.589 22.5417 165.617 22.4986C165.947 21.9822 166.105 21.4015 166.105 20.7857V17.6812L164.638 18.6421C164.636 18.6433 164.62 18.6532 164.583 18.6695C164.543 18.6866 164.487 18.7073 164.416 18.73C164.262 18.7746 164.081 18.8189 163.872 18.8628C163.648 18.9043 163.423 18.9433 163.198 18.98C162.969 19.012 162.758 19.0417 162.569 19.0689H162.567C162.088 19.1389 161.645 19.2542 161.245 19.4253L161.243 19.4263C160.813 19.611 160.432 19.8815 160.145 20.2573C159.825 20.6724 159.692 21.1627 159.692 21.6646C159.692 22.4068 159.978 23.0781 160.603 23.5337L160.61 23.5376L160.616 23.5425C161.165 23.9295 161.817 24.0884 162.505 24.0884C162.953 24.0884 163.384 24.0246 163.791 23.8921C163.783 23.8994 163.775 23.9074 163.767 23.9146C163.526 24.1234 163.224 24.3005 162.844 24.4361C162.485 24.5592 162.039 24.6314 161.493 24.6314C160.791 24.6314 160.201 24.5096 159.705 24.2896C159.23 24.0736 158.871 23.7678 158.605 23.3687C158.363 22.993 158.211 22.4821 158.211 21.7808C158.211 21.1856 158.322 20.7566 158.488 20.4488C158.674 20.1032 158.921 19.8351 159.234 19.6304C159.587 19.3991 159.999 19.2163 160.478 19.0904L160.479 19.0913C161.003 18.9554 161.555 18.8586 162.139 18.8023L162.147 18.8013C162.895 18.7233 163.506 18.6497 163.977 18.5806L163.988 18.5786C164.479 18.5008 164.978 18.3705 165.358 18.1128L165.357 18.1118C165.852 17.7777 166.081 17.2622 166.081 16.7144V16.6646C166.08 15.9243 165.837 15.2322 165.254 14.729C164.7 14.2442 163.985 14.068 163.243 14.0679C162.477 14.0679 161.751 14.2364 161.164 14.6743C160.854 14.902 160.598 15.1739 160.401 15.4849L159.025 15.3736C159.135 15.1786 159.263 14.9978 159.408 14.8296L159.411 14.8257C159.786 14.3859 160.282 14.0341 160.921 13.7808L160.924 13.7798C161.564 13.5238 162.338 13.3833 163.26 13.3833Z" fill="white" stroke="white" stroke-width="1.89453"/>
<path d="M185.667 13.3833C186.634 13.3833 187.344 13.682 187.883 14.2339L187.888 14.2398C188.409 14.7646 188.733 15.5614 188.733 16.773V24.3911H187.104V17.4693C187.104 16.6008 186.871 15.7794 186.243 15.188C185.674 14.6524 184.962 14.3989 184.182 14.3989C183.764 14.399 183.365 14.4669 183 14.6109C183.186 14.3364 183.433 14.0997 183.75 13.897L183.752 13.895C184.262 13.5658 184.888 13.3834 185.667 13.3833ZM178.238 13.3833C178.945 13.3833 179.489 13.5574 179.919 13.8628L179.923 13.8657C180.352 14.1673 180.634 14.5666 180.783 15.1021L180.975 15.7964H181.636C181.331 16.3183 181.196 16.9204 181.196 17.5601V24.3911H179.666V17.395C179.666 16.5788 179.424 15.8247 178.858 15.2417H178.857C178.301 14.6631 177.577 14.3989 176.778 14.3989C176.475 14.399 176.18 14.4424 175.898 14.5288C176.075 14.2637 176.294 14.0424 176.556 13.8599C176.995 13.5545 177.54 13.3833 178.238 13.3833ZM173.592 13.5493V15.7964H174.273C174.227 15.8708 174.181 15.9462 174.14 16.0249C173.872 16.534 173.758 17.1005 173.758 17.6929V24.3911H172.12V13.5493H173.592Z" fill="white" stroke="white" stroke-width="1.89453"/>
<path fill-rule="evenodd" clip-rule="evenodd" d="M52.3107 24.9732C52.3107 20.5566 48.7303 16.9761 44.3135 16.9761C39.8969 16.9761 36.3164 20.5566 36.3164 24.9732C36.3164 29.39 39.8969 32.9704 44.3135 32.9704C48.7303 32.9704 52.3107 29.39 52.3107 24.9732Z" fill="#00C0FF"/>
<path fill-rule="evenodd" clip-rule="evenodd" d="M28.6221 32.9763H44.304V18.4814H28.6221V32.9763Z" fill="#00C0FF"/>
<path fill-rule="evenodd" clip-rule="evenodd" d="M44.3038 16.9816C44.3038 8.14821 37.143 0.987305 28.3096 0.987305C19.4761 0.987305 12.3152 8.14821 12.3152 16.9816C12.3152 25.815 19.4761 32.976 28.3096 32.976C37.143 32.976 44.3038 25.815 44.3038 16.9816Z" fill="#8000FF"/>
<path fill-rule="evenodd" clip-rule="evenodd" d="M28.5959 32.9378L14.8669 32.5743C14.4597 32.6066 14.0489 32.623 13.6352 32.6228C12.9625 32.6227 12.2821 32.5789 11.5972 32.4891C11.5971 32.4891 11.5973 32.4891 11.5972 32.4891C11.5826 32.4872 11.5671 32.4853 11.5525 32.4834C3.01943 31.3414 9.6532 25.8951 10.795 17.362C11.9369 8.82899 9.95685 16.5927 14.3084 9.16428C16.9371 4.67693 20.4338 3.01021 20.4657 3.02352C26.4753 5.53862 29.9689 12.2451 29.0761 19.0564C29.0761 19.0564 27.8448 28.2139 27.659 29.6588C27.5646 30.3937 27.7793 31.3276 27.8933 31.6496C28.3155 32.8433 28.5959 32.9378 28.5959 32.9378Z" fill="#6000C0"/>
<path fill-rule="evenodd" clip-rule="evenodd" d="M12.2527 32.9759C5.62766 32.9759 0.25708 27.6052 0.25708 20.9801C0.25708 14.3551 5.62766 8.98438 12.2527 8.98438C18.8664 8.98438 24.23 14.3368 24.2483 20.9462L24.2485 20.9801V23.3393C24.2485 26.98 25.7385 30.4621 28.372 32.9759H24.2485H12.2868C12.2754 32.9759 12.2641 32.9759 12.2527 32.9759Z" fill="#FF0060"/>
<path fill-rule="evenodd" clip-rule="evenodd" d="M12.2869 32.9761H24.2486V20.9463H12.2869V32.9761Z" fill="#FF0060"/>
</g>
</svg>
