<svg width="137" height="33" viewBox="0 0 137 33" fill="none" xmlns="http://www.w3.org/2000/svg">
<mask id="mask0_694_834" style="mask-type:luminance" maskUnits="userSpaceOnUse" x="0" y="0" width="137" height="33">
<path d="M136.784 0.97998H0.363281V32.98H136.784V0.97998Z" fill="white"/>
</mask>
<g mask="url(#mask0_694_834)">
<path d="M11.1724 18.2057V21.9825C14.0542 21.9792 16.8169 20.868 18.8547 18.8928C20.8924 16.9175 22.0387 14.2395 22.0422 11.4462H18.1458C18.1435 13.2382 17.408 14.9562 16.1008 16.2234C14.7935 17.4906 13.0211 18.2034 11.1724 18.2057Z" fill="white"/>
<path d="M11.1714 28.6094C9.33591 28.6094 7.57567 27.9027 6.27782 26.6446C4.97997 25.3866 4.25085 23.6803 4.25085 21.9012C4.25085 20.122 4.97997 18.4158 6.27782 17.1577C7.57567 15.8997 9.33591 15.1929 11.1714 15.1929V11.4439C9.75402 11.4419 8.35022 11.7106 7.04002 12.2345C5.72982 12.7584 4.53891 13.5274 3.53529 14.4974C2.53167 15.4675 1.73499 16.6197 1.19073 17.8882C0.646482 19.1567 0.365317 20.5167 0.363292 21.8905C0.361268 23.2643 0.638423 24.6251 1.17893 25.8952C1.71945 27.1651 2.51273 28.3195 3.51349 29.2924C4.51425 30.2652 5.70289 31.0375 7.01153 31.565C8.32018 32.0925 9.7232 32.3651 11.1405 32.3671H11.1714V28.6094Z" fill="white"/>
<path d="M11.1724 28.6095V32.3586C14.0348 32.3586 16.78 31.2564 18.804 29.2945C20.828 27.3325 21.9651 24.6716 21.9651 21.897H18.093C18.0918 23.6761 17.3624 25.3822 16.0649 26.6407C14.7675 27.8991 13.0079 28.6072 11.1724 28.6095Z" fill="white"/>
<path d="M11.1724 7.69249V11.4416C14.0348 11.4416 16.78 10.3394 18.804 8.37745C20.828 6.41552 21.9651 3.75457 21.9651 0.97998H18.093C18.0918 2.75916 17.3624 4.46521 16.0649 5.72368C14.7675 6.98215 13.0079 7.69022 11.1724 7.69249Z" fill="white"/>
<path d="M22.0278 7.69249V11.4416C24.8902 11.4416 27.6353 10.3394 29.6593 8.37745C31.6833 6.41552 32.8204 3.75457 32.8204 0.97998H28.9505C28.9493 2.75953 28.2196 4.4659 26.9217 5.72443C25.6237 6.98296 23.8636 7.69078 22.0278 7.69249Z" fill="white"/>
<path d="M56.3467 17.2114H56.3584C56.9272 17.2083 57.4894 17.3237 58.0069 17.5493L58.0088 17.5503C58.4679 17.7489 58.8853 18.0238 59.2432 18.3609L59.3936 18.5083C59.8034 18.9394 60.1281 19.4383 60.3526 19.98C60.8325 21.1903 60.8335 22.5299 60.3555 23.7407C60.1315 24.2856 59.8059 24.7873 59.3936 25.2202C59.0042 25.6262 58.5326 25.9534 58.0078 26.1812L58.0069 26.1821C57.554 26.3793 57.067 26.4927 56.5713 26.5171L56.3584 26.522H56.3447C56.0148 26.528 55.6859 26.4844 55.3701 26.3931C55.1054 26.3111 54.8476 26.2102 54.5977 26.0933C54.3796 25.9748 54.1758 25.8342 53.9922 25.6714L52.8574 24.6655V30.0445H51.5254V17.3267H52.4004L52.6865 17.9497L53.0703 18.7857L53.7588 18.1753C53.9638 17.9935 54.1909 17.8355 54.4356 17.7056C54.7095 17.5699 54.9942 17.4553 55.2871 17.3628C55.6294 17.2582 55.9874 17.2072 56.3467 17.2114ZM56.0049 18.3491C55.5616 18.3491 55.1216 18.4332 54.711 18.5982C54.3003 18.763 53.9257 19.0054 53.6094 19.312L54.0801 19.7984L54.0684 19.7866L53.6094 19.312L53.6006 19.3208C52.935 19.9882 52.629 20.863 52.6289 21.8706C52.6289 22.8784 52.9349 23.7539 53.6006 24.4214V24.4204C53.9138 24.7384 54.2903 24.9886 54.7061 25.1558C55.0712 25.3026 55.4604 25.3831 55.8535 25.3941H56.002L56.0069 25.395C56.4503 25.4024 56.8917 25.3211 57.3028 25.1558L57.3018 25.1548C57.7167 24.9881 58.0924 24.7392 58.4053 24.4224L58.4063 24.4234C58.9931 23.8399 59.3014 23.0956 59.3682 22.2417L59.3828 21.8696C59.4009 21.4108 59.3275 20.953 59.166 20.522C59.0004 20.0799 58.7457 19.675 58.419 19.3316L58.4102 19.3218L58.4004 19.312L58.2783 19.2007C57.989 18.9465 57.6573 18.7425 57.2979 18.5982C56.8873 18.4333 56.4481 18.3492 56.0049 18.3491Z" fill="white"/>
<path d="M53.6094 19.312C53.9257 19.0054 54.3003 18.763 54.711 18.5982C55.1216 18.4332 55.5616 18.3491 56.0049 18.3491C56.4481 18.3492 56.8873 18.4333 57.2979 18.5982C57.6573 18.7425 57.989 18.9465 58.2783 19.2007L58.4004 19.312L58.4102 19.3218L58.419 19.3316C58.7457 19.675 59.0004 20.0799 59.166 20.522C59.3275 20.953 59.4009 21.4108 59.3828 21.8696L59.3682 22.2417C59.3014 23.0956 58.9931 23.8399 58.4063 24.4234L58.4053 24.4224C58.0924 24.7392 57.7167 24.9881 57.3018 25.1548L57.3028 25.1558C56.8917 25.3211 56.4503 25.4024 56.0069 25.395L56.002 25.3941H55.8535C55.4604 25.3831 55.0712 25.3026 54.7061 25.1558C54.2903 24.9886 53.9138 24.7384 53.6006 24.4204V24.4214C52.9349 23.7539 52.6289 22.8784 52.6289 21.8706C52.629 20.863 52.935 19.9882 53.6006 19.3208L53.6094 19.312ZM53.6094 19.312L54.0801 19.7984L54.0684 19.7866L53.6094 19.312ZM56.3467 17.2114H56.3584C56.9272 17.2083 57.4894 17.3237 58.0069 17.5493L58.0088 17.5503C58.4679 17.7489 58.8853 18.0238 59.2432 18.3609L59.3936 18.5083C59.8034 18.9394 60.1281 19.4383 60.3526 19.98C60.8325 21.1903 60.8335 22.5299 60.3555 23.7407C60.1315 24.2856 59.8059 24.7873 59.3936 25.2202C59.0042 25.6262 58.5326 25.9534 58.0078 26.1812L58.0069 26.1821C57.554 26.3793 57.067 26.4927 56.5713 26.5171L56.3584 26.522H56.3447C56.0148 26.528 55.6859 26.4844 55.3701 26.3931C55.1054 26.3111 54.8476 26.2102 54.5977 26.0933C54.3796 25.9748 54.1758 25.8342 53.9922 25.6714L52.8574 24.6655V30.0445H51.5254V17.3267H52.4004L52.6865 17.9497L53.0703 18.7857L53.7588 18.1753C53.9638 17.9935 54.1909 17.8355 54.4356 17.7056C54.7095 17.5699 54.9942 17.4553 55.2871 17.3628C55.6294 17.2582 55.9874 17.2072 56.3467 17.2114Z" stroke="white" stroke-width="1.36421"/>
<path d="M66.2246 14.8311V17.334H68.5683V18.3545H66.2246V23.3555C66.2108 23.609 66.2436 23.8625 66.3242 24.1035C66.4107 24.3622 66.5483 24.6009 66.7285 24.8057C66.9084 25.0102 67.1267 25.1779 67.3711 25.2988C67.6143 25.4193 67.8792 25.4903 68.1494 25.5117C68.2398 25.5193 68.3304 25.5194 68.4209 25.5147C68.4323 25.5151 68.4437 25.5153 68.4551 25.5156V26.4854C68.2616 26.5218 68.0645 26.5387 67.8672 26.5322L67.8515 26.5313H67.8369C67.4204 26.5361 67.0067 26.4627 66.6201 26.3154C66.278 26.1822 65.9714 25.9789 65.7217 25.7207C65.5227 25.5113 65.3579 25.2761 65.2304 25.0225L65.1162 24.7637C64.9596 24.3502 64.8834 23.9129 64.8906 23.4737V18.3477H63.249V17.5537H63.2705C63.8004 17.5537 64.3242 17.4255 64.7129 17.0488C65.1056 16.6682 65.2431 16.1478 65.2431 15.6201V14.8311H66.2246Z" fill="white" stroke="white" stroke-width="1.36421"/>
<path d="M73.4914 17.3264V26.4241H72.1604V17.3264H73.4914ZM72.4914 13.1194C72.6822 13.0399 72.8974 13.0265 73.0979 13.0833C73.2982 13.14 73.4675 13.2615 73.5793 13.4212C73.663 13.5408 73.7116 13.6772 73.7229 13.8167L73.7219 13.9563C73.7038 14.143 73.6183 14.3218 73.4758 14.4602L73.4621 14.4739C73.3904 14.5476 73.3024 14.6074 73.2033 14.6487C73.1043 14.6899 72.9965 14.7115 72.8869 14.7112H72.8684C72.7111 14.715 72.5577 14.6795 72.4231 14.6096L72.2951 14.5286C72.175 14.4373 72.0848 14.3194 72.0295 14.1887L71.9856 14.054L71.967 13.9143C71.9609 13.7749 71.9925 13.6351 72.0598 13.5081C72.1498 13.3382 72.3009 13.1989 72.4914 13.1194Z" fill="white" stroke="white" stroke-width="1.36421"/>
<path d="M81.7896 17.2117H81.814C82.2099 17.202 82.6047 17.2603 82.9781 17.3855V17.3865C83.2635 17.4872 83.5353 17.6195 83.7886 17.7801C83.9843 17.915 84.1515 18.0821 84.2808 18.2732L84.7486 18.9646L85.3326 18.3689C85.5469 18.1505 85.7888 17.9591 86.0542 17.8006L86.0552 17.8016C86.3398 17.6372 86.6394 17.4975 86.9507 17.3855C87.2875 17.2662 87.6441 17.2074 88.0035 17.2117H88.0113C89.0311 17.2117 89.7798 17.5222 90.3365 18.0955C90.874 18.6492 91.1988 19.5275 91.1988 20.8484V26.4178H89.8628V21.0769C89.8918 20.3615 89.6395 19.6653 89.1607 19.1287C88.9612 18.9047 88.7202 18.7223 88.4497 18.5906C88.1798 18.4586 87.8874 18.3804 87.5874 18.3592C87.2878 18.338 86.9865 18.3748 86.7007 18.4666C86.415 18.5585 86.1486 18.7042 85.9185 18.8973L85.9107 18.9041C85.8311 18.9728 85.7563 19.0458 85.6861 19.1228L85.6812 19.1277C85.2029 19.6634 84.9515 20.3606 84.9829 21.0769H84.981V26.4178H83.647V21.0769C83.6778 20.3615 83.4259 19.6641 82.9468 19.1277C82.7474 18.9041 82.5055 18.722 82.2359 18.5906C81.9657 18.459 81.6725 18.3804 81.3726 18.3592C81.0728 18.338 80.771 18.3746 80.4849 18.4666C80.1988 18.5586 79.9326 18.7045 79.7027 18.8973L79.6988 18.9012C79.6166 18.9713 79.5392 19.0477 79.4673 19.1287C78.9887 19.6653 78.7371 20.3616 78.7662 21.0769L78.7652 26.4178H77.4331V17.3269H78.3081L78.5943 17.95L78.9956 18.824L79.688 18.156C79.8714 17.9788 80.0736 17.8198 80.2915 17.6824C80.5106 17.5514 80.7415 17.4388 80.982 17.3484C81.2392 17.2539 81.5137 17.2083 81.7896 17.2117Z" fill="white" stroke="white" stroke-width="1.36421"/>
<path d="M96.3602 17.3262V26.4238H95.0213V17.3262H96.3602ZM95.3494 13.1104C95.541 13.0305 95.757 13.018 95.9588 13.0752C96.1605 13.1325 96.3306 13.2542 96.4422 13.4141L96.4432 13.4151C96.5549 13.5746 96.6041 13.7644 96.5857 13.9522C96.5672 14.1407 96.4816 14.3206 96.3387 14.459L96.3309 14.4658L96.324 14.4727C96.2515 14.547 96.164 14.6073 96.0652 14.6485C95.9673 14.6893 95.8583 14.7112 95.7488 14.711H95.7293C95.5181 14.7163 95.3141 14.6497 95.1531 14.5274C94.9917 14.4051 94.883 14.2357 94.8416 14.0518V14.0498L94.8221 13.9102C94.8157 13.77 94.8472 13.6295 94.9148 13.502L94.9158 13.501C95.0057 13.331 95.1574 13.1905 95.3494 13.1104Z" fill="white" stroke="white" stroke-width="1.36421"/>
<path d="M106.432 17.326V18.5623L101.899 24.1814L101.003 25.2918H106.671V26.4286H99.7061V25.1805L104.244 19.573L105.143 18.4627H99.7061V17.326H106.432Z" fill="white" stroke="white" stroke-width="1.36421"/>
<path d="M114.118 17.2062C114.652 17.2018 115.182 17.2883 115.683 17.4621L115.896 17.5421C116.428 17.7621 116.909 18.0822 117.309 18.4826C117.726 18.9073 118.053 19.4047 118.274 19.9484V19.9494C118.52 20.5573 118.642 21.2049 118.634 21.8566L118.633 21.8693C118.634 21.9488 118.629 22.0299 118.619 22.1115C118.615 22.1427 118.61 22.1743 118.606 22.2052H110.838L111.031 23.0412C111.181 23.691 111.541 24.2725 112.052 24.7042L112.061 24.7121L112.07 24.7189C112.657 25.1817 113.395 25.4167 114.144 25.3878C114.515 25.3954 114.885 25.35 115.242 25.2511L115.25 25.2482L115.258 25.2462C115.528 25.1644 115.788 25.0504 116.031 24.9064L116.039 24.9005L116.049 24.8956C116.188 24.8068 116.318 24.7039 116.439 24.5919H117.838L117.775 24.6837L117.769 24.6915C117.515 25.0402 117.206 25.3511 116.855 25.6144C116.481 25.8914 116.067 26.1166 115.625 26.2814C115.159 26.4507 114.663 26.5361 114.164 26.5314H114.156C113.535 26.5337 112.92 26.4064 112.355 26.1603L112.351 26.1583L112.142 26.0636C111.662 25.8316 111.226 25.5242 110.852 25.1535L110.851 25.1515L110.692 24.9874C110.381 24.6514 110.12 24.2762 109.917 23.8722L109.822 23.6671C109.574 23.0962 109.447 22.4833 109.447 21.8644C109.447 21.2438 109.574 20.629 109.823 20.0568C110.067 19.5081 110.416 19.007 110.851 18.5783V18.5773C111.279 18.1539 111.787 17.8122 112.349 17.5714C112.907 17.3354 113.509 17.2114 114.118 17.2062ZM114.158 18.3165C113.487 18.3166 112.833 18.5157 112.283 18.8859L112.052 19.0548C111.458 19.5339 111.052 20.203 110.909 20.9484L110.753 21.7589H117.563L117.408 20.9484C117.265 20.2029 116.857 19.534 116.262 19.0548C115.668 18.5759 114.923 18.3165 114.158 18.3165Z" fill="white" stroke="white" stroke-width="1.36421"/>
<path d="M123.322 13.4614V26.4175H121.989V13.4614H123.322Z" fill="white" stroke="white" stroke-width="1.36421"/>
<path d="M127.753 17.326L130.279 23.7127L130.942 25.3866L131.556 23.6941L133.863 17.326H135.19C134.57 18.8667 134.001 20.2819 133.48 21.5702L133.478 21.573C133.212 22.2386 132.95 22.8903 132.693 23.5224C132.434 24.1605 132.205 24.7474 131.999 25.2703L131.998 25.2714C131.792 25.7973 131.626 26.2266 131.486 26.5691L131.485 26.5711C131.413 26.7505 131.362 26.881 131.32 26.9813C131.3 27.0305 131.285 27.0653 131.275 27.0888C131.272 27.0936 131.27 27.0976 131.269 27.1005L131.251 27.1297L131.232 27.1786C131.017 27.6929 130.768 28.1921 130.485 28.6737L130.482 28.6805C130.34 28.9282 130.171 29.1613 129.977 29.3738L129.774 29.58C129.571 29.772 129.328 29.9217 129.061 30.0203C128.756 30.1229 128.435 30.1741 128.11 30.1688H128.099C128.012 30.1688 127.928 30.1647 127.845 30.16V29.2099C128.232 29.1339 128.602 28.9776 128.927 28.747L128.944 28.7351L128.96 28.7215C129.373 28.389 129.696 27.9622 129.901 27.4783L129.903 27.4715L130.137 26.9042L130.243 26.6453L130.137 26.3855L126.419 17.326H127.753Z" fill="white" stroke="white" stroke-width="1.36421"/>
<path d="M40.8572 12.1255C41.8384 12.1252 42.8101 12.3128 43.7156 12.6763C44.6211 13.0397 45.4428 13.572 46.1336 14.2417C46.8244 14.9113 47.3713 15.7054 47.7439 16.5777C48.1163 17.4496 48.3076 18.3834 48.3074 19.3257V19.3267C48.3073 20.7459 47.8732 22.1354 47.0574 23.3189C46.2413 24.5027 45.0783 25.4285 43.7146 25.9761C42.3509 26.5235 40.8493 26.6666 39.4002 26.3872C37.9511 26.1079 36.6224 25.4193 35.5818 24.4107C34.5414 23.4022 33.8353 22.1196 33.5496 20.7271C33.2638 19.3346 33.4103 17.8907 33.9715 16.5777C34.5327 15.2643 35.4852 14.1389 36.7107 13.3452C37.9364 12.5515 39.3792 12.1255 40.8572 12.1255ZM46.7879 19.2671C46.7773 18.1082 46.4127 16.98 45.742 16.0259C45.0713 15.072 44.1258 14.3357 43.0281 13.9068C41.9305 13.478 40.7271 13.3743 39.5701 13.6089C38.4128 13.8437 37.3499 14.4071 36.5183 15.23C35.6865 16.0532 35.1226 17.1002 34.9021 18.2388C34.6817 19.3772 34.8152 20.5531 35.284 21.6167C35.7529 22.6802 36.5356 23.582 37.5291 24.2095C38.3282 24.7141 39.236 25.0229 40.1756 25.1177V25.1607L40.8621 25.1558C42.4342 25.145 43.9422 24.5313 45.0545 23.4419C46.0979 22.4198 46.7135 21.0566 46.782 19.6187L46.7879 19.3306V19.2671Z" fill="white" stroke="white" stroke-width="1.36421"/>
</g>
</svg>
