<svg width="151" height="33" viewBox="0 0 151 33" fill="none" xmlns="http://www.w3.org/2000/svg">
<mask id="mask0_516_13860" style="mask-type:luminance" maskUnits="userSpaceOnUse" x="0" y="0" width="151" height="33">
<path d="M150.457 0.97998H0.696533V32.98H150.457V0.97998Z" fill="white"/>
</mask>
<g mask="url(#mask0_516_13860)">
<path fill-rule="evenodd" clip-rule="evenodd" d="M25.5186 24.7732V32.7048L37.9296 24.7732V16.8423L25.5186 24.7732Z" fill="white"/>
<path fill-rule="evenodd" clip-rule="evenodd" d="M13.1077 24.7732V32.7048L25.5187 24.7732V16.8423L13.1077 24.7732Z" fill="white"/>
<path fill-rule="evenodd" clip-rule="evenodd" d="M0.696533 24.7732V32.7048L13.1076 24.7732V16.8423L0.696533 24.7732Z" fill="white"/>
<path fill-rule="evenodd" clip-rule="evenodd" d="M37.9296 0.97998L25.5186 8.91122V16.8425L37.9296 8.91122V0.97998Z" fill="white"/>
<path fill-rule="evenodd" clip-rule="evenodd" d="M25.5187 0.97998L13.1077 8.91122V16.8425L25.5187 8.91122V0.97998Z" fill="white"/>
<path fill-rule="evenodd" clip-rule="evenodd" d="M13.1076 0.97998L0.696533 8.91122V16.8425L13.1076 8.91122V0.97998Z" fill="white"/>
<path fill-rule="evenodd" clip-rule="evenodd" d="M64.3195 17.3227V24.8359H61.1158V17.5723C61.1158 16.0999 60.4257 15.3758 59.0951 15.3758C58.1088 15.3758 57.2467 15.8004 56.5075 16.6488V24.8359H53.3032V17.5723C53.3032 16.0999 52.638 15.3758 51.3072 15.3758C50.2969 15.3758 49.4341 15.8252 48.6946 16.7241V24.8359H45.4662V12.8547H48.4731V13.9783C49.4588 13.1044 50.8392 12.6304 52.2438 12.6304C53.8702 12.6304 55.0529 13.1797 55.7433 14.2777C57.0492 13.1797 58.4788 12.6304 60.0311 12.6304C62.8165 12.6304 64.3195 14.2777 64.3195 17.3227Z" fill="white"/>
<path fill-rule="evenodd" clip-rule="evenodd" d="M76.0138 18.8205C76.0138 16.6991 74.5354 15.3758 72.8593 15.3758C71.7748 15.3758 70.8632 15.8004 70.1485 16.599V21.1671C70.8632 21.9407 71.7255 22.34 72.7362 22.34C74.56 22.34 76.0138 21.0171 76.0138 18.8205ZM78.4045 15.5758C78.9468 16.5243 79.2422 17.5973 79.2422 18.8205C79.2422 20.6677 78.503 22.315 77.3937 23.3882C76.285 24.4618 74.8062 25.1107 73.2539 25.1107C72.0464 25.1107 71.0356 24.7364 70.1979 24.0122V30.4274H66.9695V12.8549H70.0995V13.7786C71.0356 13.005 72.0955 12.6304 73.2539 12.6304C75.3731 12.6304 77.2707 13.6787 78.4045 15.5758Z" fill="white"/>
<path fill-rule="evenodd" clip-rule="evenodd" d="M89.6196 21.1918V16.5491C88.9051 15.7754 88.0184 15.3758 86.983 15.3758C85.2578 15.3758 83.7793 16.7239 83.7793 18.8703C83.7793 21.0169 85.2331 22.3398 86.9585 22.3398C88.043 22.3398 88.9298 21.9654 89.6196 21.1918ZM92.7989 24.8359H89.772L89.7685 23.8126C88.8805 24.6863 87.7961 25.1106 86.5146 25.1106C84.3956 25.1106 82.4978 24.0373 81.3887 22.1151C80.8217 21.1669 80.5509 20.0933 80.5509 18.8703C80.5509 16.4492 81.7833 14.4273 83.6071 13.404C84.5187 12.8801 85.5047 12.6304 86.5393 12.6304C87.8208 12.6304 88.8805 13.0545 89.7438 13.8784V12.8547H92.7989V24.8359Z" fill="white"/>
<path fill-rule="evenodd" clip-rule="evenodd" d="M98.5665 12.8547V13.9533C99.5276 12.9798 100.587 12.6304 102.411 12.6304V15.7252C102.189 15.6505 101.869 15.6255 101.524 15.6255C100.538 15.6255 99.5029 16.1249 98.7885 16.9981V24.8359H95.5598V12.8547H98.5665Z" fill="white"/>
<path fill-rule="evenodd" clip-rule="evenodd" d="M112.14 12.8548V15.5506H109.479V24.8359H106.275V15.5506H103.786V12.8548H106.275V8.86133H109.479V12.8548H112.14Z" fill="white"/>
<mask id="mask1_516_13860" style="mask-type:alpha" maskUnits="userSpaceOnUse" x="0" y="0" width="151" height="33">
<path d="M0.696533 32.705H150.296V0.986816H0.696533V32.705Z" fill="white"/>
</mask>
<g mask="url(#mask1_516_13860)">
<path fill-rule="evenodd" clip-rule="evenodd" d="M114.03 24.8363H117.259V12.8551H114.03V24.8363ZM113.957 11.258H117.333V7.96289H113.957V11.258Z" fill="white"/>
<path fill-rule="evenodd" clip-rule="evenodd" d="M130.831 22.4147C129.697 24.0623 127.775 25.0858 125.581 25.0858C123.264 25.0858 121.22 23.9872 120.085 22.0901C119.519 21.1418 119.224 20.0685 119.224 18.8953C119.224 16.5242 120.431 14.5026 122.378 13.429C123.338 12.9051 124.398 12.6304 125.557 12.6304C127.898 12.6304 129.648 13.5291 130.806 15.3509L128.341 16.8985C127.651 15.9002 126.74 15.4008 125.581 15.4008C123.708 15.4008 122.451 16.8735 122.451 18.9203C122.451 20.9671 123.659 22.315 125.557 22.315C126.764 22.315 127.725 21.816 128.465 20.8425L130.831 22.4147Z" fill="white"/>
<path fill-rule="evenodd" clip-rule="evenodd" d="M132.949 24.8367H136.152V6.89014H132.949V24.8367Z" fill="white"/>
<path fill-rule="evenodd" clip-rule="evenodd" d="M144.357 15.2732C145.86 15.2732 146.796 15.9969 147.191 17.4697H141.301C141.744 16.0472 142.804 15.2732 144.357 15.2732ZM147.242 20.9061C146.479 21.8196 145.481 22.287 144.282 22.287C142.607 22.287 141.424 21.3634 141.177 19.6165H150.271C150.296 19.4416 150.296 19.267 150.296 19.1171C150.296 15.1485 147.856 12.6025 144.282 12.6025C143.05 12.6025 141.966 12.8771 141.005 13.451C139.083 14.5743 138.022 16.5461 138.022 18.8673C138.022 20.5649 138.663 22.1374 139.723 23.2356C140.783 24.3589 142.434 25.0578 144.282 25.0578C146.452 25.0578 148.325 24.1092 149.507 22.4117L149.505 22.4102L147.242 20.9061Z" fill="white"/>
</g>
</g>
</svg>
