<svg width="108" height="33" viewBox="0 0 108 33" fill="none" xmlns="http://www.w3.org/2000/svg">
<mask id="mask0_516_13884" style="mask-type:luminance" maskUnits="userSpaceOnUse" x="0" y="0" width="108" height="33">
<path d="M107.124 0.97998H0.456604V32.98H107.124V0.97998Z" fill="white"/>
</mask>
<g mask="url(#mask0_516_13884)">
<path d="M32.4673 15.3053H22.7158L31.1606 10.4307L29.4859 7.52931L21.0401 12.404L25.9147 3.96131L23.0134 2.28665L18.1377 10.7272V0.97998H14.7862V10.7283L9.91047 2.28665L7.00807 3.96131L11.8827 12.4019L3.439 7.52931L1.76327 10.4307L10.2081 15.3053H0.456604V18.6557H10.207L1.76327 23.5304L3.43794 26.4317L11.8838 21.5571L7.00807 29.9997L9.9094 31.6744L14.7862 23.2328V32.98H18.1377V23.0237L23.103 31.6211L25.8241 30.0509L20.8577 21.4515L29.4838 26.4307L31.1595 23.5293L22.7158 18.6547H32.4662V15.3053H32.4673ZM16.4619 21.5347C15.8636 21.5348 15.2712 21.417 14.7185 21.1881C14.1657 20.9592 13.6634 20.6237 13.2404 20.2007C12.8174 19.7778 12.4817 19.2756 12.2527 18.7228C12.0236 18.1701 11.9058 17.5778 11.9057 16.9795C11.9056 16.3812 12.0233 15.7887 12.2522 15.236C12.4811 14.6833 12.8166 14.181 13.2396 13.7579C13.6626 13.3349 14.1648 12.9992 14.7175 12.7702C15.2703 12.5412 15.8626 12.4233 16.4609 12.4232C17.6691 12.4231 18.8279 12.9029 19.6824 13.7572C20.5369 14.6115 21.017 15.7702 21.0171 16.9784C21.0172 18.1866 20.5375 19.3454 19.6832 20.1999C18.8289 21.0545 17.6702 21.5346 16.4619 21.5347Z" fill="#5753F3"/>
<path d="M41.1061 28.6846V5.27551H45.4026V28.6846H41.1061ZM82.3146 12.7763H86.417V14.7177C87.2895 13.1657 89.3258 12.3241 91.0698 12.3241C93.2351 12.3241 94.9792 13.2627 95.7866 14.9747C97.0453 13.0334 98.7264 12.3241 100.827 12.3241C103.766 12.3241 106.576 14.1022 106.576 18.3699V28.6846H102.41V19.2435C102.41 17.5294 101.569 16.2355 99.5978 16.2355C97.7557 16.2355 96.657 17.6595 96.657 19.3737V28.6857H92.3946V19.2435C92.3946 17.5294 91.5221 16.2355 89.5829 16.2355C87.7088 16.2355 86.6101 17.6275 86.6101 19.3737V28.6857H82.3146V12.7763ZM55.1125 29.1454C50.2719 29.1454 46.7669 25.5539 46.7669 20.7305C46.7669 15.9838 50.2613 12.3081 55.1125 12.3081C59.9871 12.3081 63.4581 16.0179 63.4581 20.7305C63.4581 25.5198 59.9509 29.1454 55.1125 29.1454ZM55.1125 16.2014C53.9118 16.2031 52.7609 16.681 51.9122 17.5304C51.0635 18.3796 50.5864 19.5309 50.5855 20.7315C50.5864 21.9322 51.0635 23.0834 51.9122 23.9327C52.7609 24.7821 53.9118 25.26 55.1125 25.2617C56.3129 25.2596 57.4636 24.7817 58.3121 23.9324C59.1605 23.0831 59.6375 21.932 59.6383 20.7315C59.6375 19.5311 59.1605 18.38 58.3121 17.5307C57.4636 16.6814 56.3129 16.2034 55.1125 16.2014ZM72.6346 29.1454C67.7941 29.1454 64.289 25.5539 64.289 20.7305C64.289 15.9838 67.7834 12.3081 72.6346 12.3081C77.5093 12.3081 80.9802 16.0179 80.9802 20.7305C80.9802 25.5198 77.4709 29.1454 72.6346 29.1454ZM72.6346 16.147C71.4202 16.149 70.2561 16.6325 69.3977 17.4915C68.5393 18.3505 68.0565 19.515 68.0554 20.7294C68.0565 21.9438 68.5393 23.1083 69.3977 23.9673C70.2561 24.8263 71.4202 25.3098 72.6346 25.3118C73.849 25.3098 75.0131 24.8263 75.8715 23.9673C76.73 23.1083 77.2126 21.9438 77.2138 20.7294C77.2126 19.515 76.73 18.3505 75.8715 17.4915C75.0131 16.6325 73.849 16.149 72.6346 16.147Z" fill="white"/>
</g>
</svg>
